REM DIRINDEX 1\2,1\3
REM DIRNAME cjc133,folder01,folder02
TITLE ""
FILE "DISC1Track32.mp3" MP3
  TRACK 01 AUDIO
    TITLE "0:"
    INDEX 01 00:00:00
  TRACK 02 AUDIO
    TITLE "3:cjc133_1428"
    INDEX 01 00:00:15
  TRACK 03 AUDIO
    TITLE "0:"
    INDEX 01 00:01:48
  TRACK 04 AUDIO
    TITLE "2:cjc133_1429"
    INDEX 01 00:02:26
  TRACK 05 AUDIO
    TITLE "2:cjc133_1430"
    INDEX 01 00:05:26
  TRACK 06 AUDIO
    TITLE "2:cjc133_1431"
    INDEX 01 00:07:70
  TRACK 07 AUDIO
    TITLE "0:"
    INDEX 01 00:09:55
  TRACK 08 AUDIO
    TITLE "2:cjc133_1432"
    INDEX 01 00:10:31
  TRACK 09 AUDIO
    TITLE "2:cjc133_1433"
    INDEX 01 00:11:25
  TRACK 10 AUDIO
    TITLE "2:cjc133_1434"
    INDEX 01 00:14:15
  TRACK 11 AUDIO
    TITLE "0:"
    INDEX 01 00:16:12
  TRACK 12 AUDIO
    TITLE "2:cjc133_1435"
    INDEX 01 00:16:63
  TRACK 13 AUDIO
    TITLE "2:cjc133_1436"
    INDEX 01 00:18:11
  TRACK 14 AUDIO
    TITLE "2:cjc133_1437"
    INDEX 01 00:21:08
  TRACK 15 AUDIO
    TITLE "0:"
    INDEX 01 00:23:06
  TRACK 16 AUDIO
    TITLE "2:cjc133_1438"
    INDEX 01 00:23:57
  TRACK 17 AUDIO
    TITLE "2:cjc133_1439"
    INDEX 01 00:25:45
  TRACK 18 AUDIO
    TITLE "2:cjc133_1440"
    INDEX 01 00:28:10
  TRACK 19 AUDIO
    TITLE "0:"
    INDEX 01 00:29:60
  TRACK 20 AUDIO
    TITLE "2:cjc133_1441"
    INDEX 01 00:30:36
  TRACK 21 AUDIO
    TITLE "2:cjc133_1442"
    INDEX 01 00:34:16
  TRACK 22 AUDIO
    TITLE "2:cjc133_1443"
    INDEX 01 00:37:73
  TRACK 23 AUDIO
    TITLE "0:"
    INDEX 01 00:40:62
  TRACK 24 AUDIO
    TITLE "2:cjc133_1444"
    INDEX 01 00:41:42
  TRACK 25 AUDIO
    TITLE "2:cjc133_1445"
    INDEX 01 00:43:03
  TRACK 26 AUDIO
    TITLE "2:cjc133_1446"
    INDEX 01 00:46:62
  TRACK 27 AUDIO
    TITLE "0:"
    INDEX 01 00:49:51
  TRACK 28 AUDIO
    TITLE "2:cjc133_1447"
    INDEX 01 00:50:29
  TRACK 29 AUDIO
    TITLE "2:cjc133_1448"
    INDEX 01 00:51:30
  TRACK 30 AUDIO
    TITLE "2:cjc133_1449"
    INDEX 01 00:54:66
  TRACK 31 AUDIO
    TITLE "0:"
    INDEX 01 00:57:31
  TRACK 32 AUDIO
    TITLE "2:cjc133_1450"
    INDEX 01 00:58:07
  TRACK 33 AUDIO
    TITLE "2:cjc133_1451"
    INDEX 01 00:59:18
  TRACK 34 AUDIO
    TITLE "2:cjc133_1452"
    INDEX 01 01:02:30
  TRACK 35 AUDIO
    TITLE "0:"
    INDEX 01 01:04:56
  TRACK 36 AUDIO
    TITLE "2:cjc133_1453"
    INDEX 01 01:05:34
  TRACK 37 AUDIO
    TITLE "2:cjc133_1454"
    INDEX 01 01:07:63
  TRACK 38 AUDIO
    TITLE "2:cjc133_1455"
    INDEX 01 01:10:67
  TRACK 39 AUDIO
    TITLE "0:"
    INDEX 01 01:12:73
  TRACK 40 AUDIO
    TITLE "2:cjc133_1456"
    INDEX 01 01:13:51
  TRACK 41 AUDIO
    TITLE "2:cjc133_1457"
    INDEX 01 01:17:06
  TRACK 42 AUDIO
    TITLE "2:cjc133_1458"
    INDEX 01 01:20:18
  TRACK 43 AUDIO
    TITLE "0:"
    INDEX 01 01:22:35
  TRACK 44 AUDIO
    TITLE "2:cjc133_1459"
    INDEX 01 01:23:13
  TRACK 45 AUDIO
    TITLE "2:cjc133_1460"
    INDEX 01 01:24:53
  TRACK 46 AUDIO
    TITLE "2:cjc133_1461"
    INDEX 01 01:27:57
  TRACK 47 AUDIO
    TITLE "0:"
    INDEX 01 01:29:68
  TRACK 48 AUDIO
    TITLE "2:cjc133_1462"
    INDEX 01 01:30:46
  TRACK 49 AUDIO
    TITLE "2:cjc133_1463"
    INDEX 01 01:32:49
  TRACK 50 AUDIO
    TITLE "2:cjc133_1464"
    INDEX 01 01:35:65
  TRACK 51 AUDIO
    TITLE "0:"
    INDEX 01 01:38:10
  TRACK 52 AUDIO
    TITLE "2:cjc133_1465"
    INDEX 01 01:38:61
  TRACK 53 AUDIO
    TITLE "2:cjc133_1466"
    INDEX 01 01:40:60
  TRACK 54 AUDIO
    TITLE "2:cjc133_1467"
    INDEX 01 01:44:05
  TRACK 55 AUDIO
    TITLE "0:"
    INDEX 01 01:46:33
  TRACK 56 AUDIO
    TITLE "2:cjc133_1468"
    INDEX 01 01:47:09
  TRACK 57 AUDIO
    TITLE "2:cjc133_1469"
    INDEX 01 01:48:42
  TRACK 58 AUDIO
    TITLE "2:cjc133_1470"
    INDEX 01 01:51:66
  TRACK 59 AUDIO
    TITLE "0:"
    INDEX 01 01:54:29
  TRACK 60 AUDIO
    TITLE "2:cjc133_1471"
    INDEX 01 01:55:01
  TRACK 61 AUDIO
    TITLE "2:cjc133_1472"
    INDEX 01 01:56:59
  TRACK 62 AUDIO
    TITLE "2:cjc133_1473"
    INDEX 01 02:00:20
  TRACK 63 AUDIO
    TITLE "0:"
    INDEX 01 02:02:64
